# xmcd
#
# Track frame offsets:
#	182
#	11767
#	26297
#	38977
#	54915
#	76937
#	91090
#	104860
#	120722
#	137147
#
# Disc length: 2057
#
# Revision: 3
# Processed by: cddbd v1.5.1PL0 Copyright (c) Steve Scherf et al.
# Submitted via: CDex 1.50beta10
# Normalized: r2:TDELIM( - )
#
DISCID=7908070a
DTITLE=Various Artist - Hot Country Hits of the 90's - Volume 1
DYEAR=1994
DGENRE=Country
TTITLE0=Chris Ledoux (w/ Garth Brooks) - Whatcha Gonna do With a Cowboy
TTITLE1=Marty Stuart - Tempted
TTITLE2=Holly Dunn - You Really Had me Going
TTITLE3=Charlie Daniels - All Night Long
TTITLE4=Ronnie Milsap - True Believer
TTITLE5=Billy Dean - Billy The Kid
TTITLE6=Tanya Tucker - If Your Heart Ain't Busy Tonight
TTITLE7=Radney Foster - Nobody Wins
TTITLE8=Steve Wariner - The Tips of my Fingers
TTITLE9=Suzy Bogguss - Aces
EXTD=YEAR: 1994
EXTT0=
EXTT1=
EXTT2=
EXTT3=
EXTT4=
EXTT5=
EXTT6=
EXTT7=
EXTT8=
EXTT9=
PLAYORDER=
